<svg preserveAspectRatio="none" width="100%" height="100%" overflow="visible" style="display: block;" viewBox="0 0 24 24" fill="none" xmlns="http://www.w3.org/2000/svg">
<g id="Close remove">
<path id="Vector" d="M7.11436 6.19119C6.85944 5.93627 6.44611 5.93627 6.19119 6.19119C5.93627 6.44611 5.93627 6.85944 6.19119 7.11436L10.9518 11.875L6.19119 16.6357C5.93627 16.8906 5.93627 17.3038 6.19119 17.5588C6.44611 17.8137 6.85944 17.8137 7.11436 17.5588L11.875 12.7982L16.6357 17.5588C16.8906 17.8137 17.3038 17.8137 17.5588 17.5588C17.8137 17.3038 17.8137 16.8906 17.5588 16.6357L12.7982 11.875L17.5588 7.11436C17.8137 6.85944 17.8137 6.44611 17.5588 6.19119C17.3038 5.93627 16.8906 5.93627 16.6357 6.19119L11.875 10.9518L7.11436 6.19119Z" fill="var(--fill-0, black)"/>
</g>
</svg>
