<svg preserveAspectRatio="none" width="100%" height="100%" overflow="visible" style="display: block;" viewBox="0 0 24 24" fill="none" xmlns="http://www.w3.org/2000/svg">
<g id="fi_1442912">
<path id="Vector" d="M15.9784 9.14424C16.2531 9.4189 16.2531 9.86412 15.9784 10.1386L11.2614 14.8558C10.9868 15.1303 10.5417 15.1303 10.267 14.8558L8.02158 12.6102C7.74692 12.3356 7.74692 11.8904 8.02158 11.6159C8.2961 11.3412 8.74132 11.3412 9.01584 11.6159L10.7642 13.3642L14.984 9.14424C15.2587 8.86972 15.7039 8.86972 15.9784 9.14424ZM21 12C21 16.9747 16.9741 21 12 21C7.02525 21 3 16.9741 3 12C3 7.02525 7.02594 3 12 3C16.9747 3 21 7.02594 21 12ZM19.5938 12C19.5938 7.80254 16.1969 4.40625 12 4.40625C7.80254 4.40625 4.40625 7.80309 4.40625 12C4.40625 16.1975 7.80309 19.5938 12 19.5938C16.1975 19.5938 19.5938 16.1969 19.5938 12Z" fill="var(--fill-0, black)"/>
</g>
</svg>
