<svg preserveAspectRatio="none" width="100%" height="100%" overflow="visible" style="display: block;" viewBox="0 0 24 24" fill="none" xmlns="http://www.w3.org/2000/svg">
<g id="Discord">
<path id="Vector" d="M9.45315 16.5945C9.23813 16.9253 8.70105 18.4256 8.43932 18.7185C8.30991 18.8625 8.06959 19.0191 7.90126 18.9987C6.36981 18.809 4.9337 18.3595 3.74668 17.3145C3.25825 16.8835 2.95176 16.395 3.00625 15.678C3.19598 13.1949 3.7423 10.0228 4.66857 7.71004C5.08695 6.66701 5.83224 5.94604 6.86067 5.59188C7.45321 5.34475 8.11289 5.14821 8.75407 5.03923C9.88856 4.84561 9.92553 5.38129 10.1892 6.36691C11.383 6.21026 12.5827 6.21026 13.7775 6.36691C14.0402 5.38129 14.083 4.84561 15.2185 5.03923C15.8597 5.14821 16.5184 5.34475 17.1109 5.59188C18.1403 5.94604 18.8856 6.66701 19.304 7.71004C20.2303 10.0228 20.8048 13.1949 20.9936 15.678C21.049 16.395 20.7416 16.8835 20.2531 17.3145C19.0671 18.3595 17.63 18.809 16.0995 18.9987C15.9302 19.0191 15.6899 18.8625 15.5615 18.7185C15.2997 18.4256 14.7617 16.9253 14.5476 16.5945" stroke="var(--stroke-0, black)" stroke-width="1.5" stroke-linecap="round" stroke-linejoin="round"/>
<path id="Vector_2" d="M7.13281 15.4258C10.3689 17.3542 13.605 17.3542 16.8411 15.4258" stroke="var(--stroke-0, black)" stroke-width="1.5" stroke-linecap="round" stroke-linejoin="round"/>
<path id="Vector_3" fill-rule="evenodd" clip-rule="evenodd" d="M10.2951 11.5675C10.2951 12.3775 9.78053 13.0334 9.14512 13.0334C8.5106 13.0334 7.99512 12.3775 7.99512 11.5675C7.99512 10.7575 8.5106 10.1016 9.14512 10.1016C9.78053 10.1016 10.2951 10.7575 10.2951 11.5675Z" stroke="var(--stroke-0, black)" stroke-width="1.5" stroke-linecap="round" stroke-linejoin="round"/>
<path id="Vector_4" fill-rule="evenodd" clip-rule="evenodd" d="M15.9768 11.5675C15.9768 12.3775 15.4622 13.0334 14.8268 13.0334C14.1913 13.0334 13.6768 12.3775 13.6768 11.5675C13.6768 10.7575 14.1913 10.1016 14.8268 10.1016C15.4622 10.1016 15.9768 10.7575 15.9768 11.5675Z" stroke="var(--stroke-0, black)" stroke-width="1.5" stroke-linecap="round" stroke-linejoin="round"/>
</g>
</svg>
