<svg preserveAspectRatio="none" width="100%" height="100%" overflow="visible" style="display: block;" viewBox="0 0 17.7045 8.38291" fill="none" xmlns="http://www.w3.org/2000/svg">
<g id="XMLID_13_">
<path id="XMLID_1_" d="M9.59365 6.02353C9.9334 6.42355 10.2914 6.81079 10.6896 7.15418C11.0933 7.50123 11.5316 7.82271 12.0212 8.03824C12.5381 8.26474 13.0788 8.39808 13.6486 8.37981C14.1217 8.36337 14.6003 8.27387 15.0387 8.09487C15.9282 7.73321 16.6862 7.10486 17.163 6.26464C17.658 5.39519 17.8096 4.38327 17.6342 3.4024C17.4735 2.50372 16.9803 1.64523 16.2899 1.04794C15.5446 0.403163 14.6094 0.0287154 13.6212 0.0013168C13.161 -0.0114692 12.6915 0.0689002 12.2659 0.240598C11.7837 0.434215 11.3618 0.697242 10.9526 1.01872C10.2366 1.57948 9.64845 2.28636 9.08952 2.99873C8.80457 3.36039 8.52145 3.72388 8.24381 4.08919C8.11778 4.25723 7.98992 4.42528 7.86206 4.5915C7.84745 4.60976 7.79082 4.68465 7.8511 4.60611C7.91503 4.52392 7.84562 4.61159 7.83283 4.62986C7.79813 4.67369 7.76525 4.71753 7.73055 4.75954C7.65931 4.85087 7.58625 4.9422 7.51318 5.0317C7.22459 5.38606 6.9232 5.72945 6.59624 6.04728C6.43551 6.20436 6.26746 6.35597 6.09211 6.50027C6.06836 6.51853 6.04462 6.53863 6.0227 6.55689C6.01357 6.5642 6.00261 6.5715 5.99165 6.58064C5.98252 6.58794 6.09759 6.50027 6.05192 6.53315C6.00443 6.56968 5.95694 6.60438 5.90945 6.63909C5.81995 6.70302 5.73045 6.76329 5.63729 6.81992C5.46012 6.92951 5.2738 7.02815 5.08201 7.11034C5.12585 7.09208 5.16969 7.07381 5.21353 7.05555C4.95233 7.16514 4.68199 7.24368 4.4007 7.28021C4.45002 7.27291 4.49751 7.26743 4.54683 7.26012C4.26554 7.29665 3.98059 7.28935 3.6993 7.25282C3.74862 7.26012 3.79611 7.2656 3.84542 7.27291C3.5276 7.22907 3.21708 7.14687 2.92118 7.02267L3.05269 7.07747C2.83715 6.98614 2.63075 6.87654 2.43713 6.74685C2.39147 6.7158 2.34398 6.68292 2.30014 6.65005C2.19237 6.56968 2.38599 6.71946 2.31658 6.66283C2.29101 6.64274 2.26726 6.62265 2.24169 6.60256C2.15584 6.53132 2.07365 6.45643 1.9951 6.37606C1.91656 6.29569 1.84167 6.21532 1.76861 6.12947C1.74852 6.10573 1.72842 6.08016 1.70833 6.05458C1.64805 5.97969 1.79601 6.17331 1.72842 6.08016C1.69372 6.03084 1.65901 5.98335 1.62431 5.93403C1.49462 5.74041 1.38503 5.53401 1.2937 5.31847L1.3485 5.44999C1.22612 5.15408 1.14209 4.84357 1.09826 4.52574C1.10556 4.57506 1.11104 4.62255 1.11835 4.67187C1.07634 4.35222 1.07634 4.02891 1.11835 3.70744C1.11104 3.75675 1.10556 3.80424 1.09826 3.85356C1.14209 3.53574 1.22429 3.22522 1.3485 2.92932C1.33023 2.97315 1.31197 3.01699 1.2937 3.06083C1.38503 2.84529 1.49462 2.63889 1.62431 2.44527C1.65536 2.39961 1.68824 2.35212 1.72112 2.30828C1.80149 2.20051 1.65171 2.39413 1.70833 2.32472C1.72842 2.29915 1.74852 2.2754 1.76861 2.24983C1.83985 2.16398 1.91473 2.08178 1.9951 2.00324C2.07547 1.9247 2.15584 1.84981 2.24169 1.77675C2.26544 1.75665 2.29101 1.73656 2.31658 1.71647C2.39147 1.65619 2.19785 1.80415 2.29101 1.73656C2.34033 1.70186 2.38782 1.66715 2.43713 1.63245C2.63075 1.50276 2.83715 1.39317 3.05269 1.30184C3.00885 1.3201 2.96501 1.33837 2.92118 1.35663C3.21708 1.23425 3.5276 1.15023 3.84542 1.10639C3.79611 1.1137 3.74862 1.11918 3.6993 1.12649C3.97876 1.08996 4.26188 1.08265 4.54317 1.11918C4.49386 1.11187 4.44637 1.10639 4.39705 1.09909C4.67104 1.13562 4.93406 1.21051 5.18978 1.31645C5.14594 1.29818 5.10211 1.27992 5.05827 1.26165C5.28111 1.35663 5.49482 1.47171 5.6994 1.60322C5.80351 1.67081 5.90397 1.74387 6.00443 1.81693C6.08846 1.87904 5.90945 1.74022 5.98617 1.80232C6.01357 1.82424 6.03914 1.84433 6.06654 1.86625C6.11586 1.90643 6.16517 1.94662 6.21266 1.98863C6.60538 2.32837 6.95973 2.71013 7.29582 3.10467C7.48213 3.32386 7.88215 3.31107 8.07029 3.10467C8.284 2.87087 8.26939 2.564 8.07029 2.3302C7.73055 1.93201 7.37436 1.5466 6.97617 1.20503C6.57615 0.859807 6.1396 0.541983 5.65191 0.331927C5.13498 0.109085 4.59615 -0.020602 4.02991 0.00314348C3.56048 0.0232358 3.08922 0.112738 2.6545 0.291743C1.76496 0.655231 1.01058 1.28723 0.535671 2.12745C0.0443227 2.99873 -0.105456 4.01065 0.0717213 4.99152C0.234286 5.89019 0.731115 6.74686 1.42339 7.34232C2.1668 7.98162 3.09835 8.35424 4.08288 8.38164C4.54865 8.39442 5.02174 8.3104 5.45281 8.13688C5.93685 7.94143 6.36244 7.67658 6.77342 7.3551C7.48944 6.79435 8.08125 6.08929 8.63653 5.37327C8.79179 5.17418 8.94339 4.97325 9.09682 4.77233C9.15893 4.69196 9.2192 4.60976 9.28131 4.52939C9.29592 4.51113 9.35072 4.43989 9.28679 4.52209C9.22286 4.60428 9.28496 4.52574 9.3014 4.50565C9.33245 4.46546 9.3635 4.42528 9.39456 4.38509C9.66489 4.03805 9.93157 3.68917 10.211 3.34943C10.4996 2.9969 10.801 2.6535 11.1261 2.33385C11.2887 2.17311 11.4586 2.01785 11.6358 1.87356C11.6559 1.85712 11.6759 1.84068 11.696 1.82606C11.7143 1.81145 11.7892 1.753 11.7107 1.81328C11.6321 1.87356 11.707 1.81693 11.7253 1.80232C11.7527 1.78223 11.7801 1.76213 11.8075 1.74204C11.8951 1.67811 11.9846 1.61784 12.0778 1.56121C12.255 1.45162 12.4395 1.35298 12.6294 1.27079C12.5856 1.28905 12.5417 1.30732 12.4979 1.32558C12.7573 1.21599 13.0276 1.13745 13.3071 1.10091C13.2578 1.10822 13.2103 1.1137 13.161 1.12101C13.4422 1.08448 13.7272 1.09178 14.0085 1.12831C13.9592 1.12101 13.9117 1.11553 13.8624 1.10822C14.1802 1.15206 14.4907 1.23425 14.7866 1.35846C14.7428 1.3402 14.6989 1.32193 14.6551 1.30366C14.8706 1.39499 15.077 1.50459 15.2706 1.63427C15.3163 1.66533 15.3638 1.6982 15.4076 1.73108C15.5154 1.81145 15.3218 1.66167 15.3912 1.7183C15.4168 1.73839 15.4405 1.75848 15.4661 1.77857C15.5519 1.84981 15.6341 1.9247 15.7127 2.00507C15.7912 2.08544 15.8661 2.16581 15.9392 2.25166C15.9593 2.2754 15.9794 2.30097 15.9994 2.32655C16.0597 2.40144 15.9118 2.20599 15.9794 2.30097C16.0141 2.35029 16.0488 2.39778 16.0835 2.4471C16.2132 2.64072 16.3228 2.84712 16.4141 3.06266C16.3958 3.01882 16.3775 2.97498 16.3593 2.93114C16.4817 3.22705 16.5657 3.53756 16.6095 3.85539C16.6022 3.80607 16.5967 3.75858 16.5894 3.70926C16.6314 4.02891 16.6314 4.35222 16.5894 4.67369C16.5967 4.62438 16.6022 4.57688 16.6095 4.52757C16.5657 4.84539 16.4835 5.15591 16.3593 5.45181C16.3775 5.40798 16.3958 5.36414 16.4141 5.3203C16.3228 5.53584 16.2132 5.74224 16.0835 5.93586C16.0524 5.98152 16.0195 6.02901 15.9867 6.07285C15.9063 6.18062 16.0561 5.987 15.9994 6.05641C15.9794 6.08198 15.9593 6.10573 15.9392 6.1313C15.8679 6.21715 15.793 6.29934 15.7127 6.37789C15.6323 6.45643 15.5519 6.53132 15.4661 6.60438C15.4423 6.62447 15.4168 6.64457 15.3912 6.66466C15.3163 6.72494 15.5118 6.57698 15.4168 6.64457C15.3675 6.67927 15.32 6.71398 15.2706 6.74868C15.077 6.87837 14.8706 6.98796 14.6551 7.07929C14.6989 7.06103 14.7428 7.04276 14.7866 7.02449C14.4907 7.14687 14.1802 7.2309 13.8624 7.27473C13.9117 7.26743 13.9592 7.26195 14.0085 7.25464C13.729 7.29117 13.4459 7.29848 13.1646 7.26195C13.2139 7.26925 13.2614 7.27474 13.3107 7.28204C13.0276 7.24368 12.7536 7.16514 12.4888 7.05372L12.6203 7.10852C12.3956 7.01171 12.1801 6.89481 11.9755 6.76147C11.8714 6.69206 11.7691 6.61899 11.6686 6.54411C11.5846 6.482 11.7636 6.62082 11.6869 6.55872C11.6595 6.5368 11.6339 6.51671 11.6065 6.49479C11.5572 6.4546 11.5079 6.41259 11.4604 6.37058C11.0677 6.02901 10.7115 5.64726 10.3754 5.24906C10.2896 5.14678 10.1161 5.08833 9.98819 5.08833C9.85303 5.08833 9.69411 5.1486 9.60096 5.24906C9.37994 5.48104 9.39638 5.7879 9.59365 6.02353Z" fill="var(--fill-0, black)"/>
</g>
</svg>
