<svg preserveAspectRatio="none" width="100%" height="100%" overflow="visible" style="display: block;" viewBox="0 0 20.8321 15.4999" fill="none" xmlns="http://www.w3.org/2000/svg">
<g id="Video">
<path id="Stroke-1" fill-rule="evenodd" clip-rule="evenodd" d="M14.7469 11.2883C14.8278 13.1203 13.3492 14.6695 11.4446 14.7474C11.3043 14.7533 4.46531 14.7395 4.46531 14.7395C2.56996 14.8834 0.91115 13.5214 0.761652 11.6963C0.750388 11.5603 0.75346 4.22214 0.75346 4.22214C0.669495 2.3881 2.14604 0.834933 4.05163 0.754121C4.19396 0.747222 11.0238 0.760034 11.0238 0.760034C12.9283 0.61812 14.5923 1.98995 14.7397 3.82399C14.75 3.95605 14.7469 11.2883 14.7469 11.2883Z" stroke="var(--stroke-0, black)" stroke-width="1.5" stroke-linecap="round" stroke-linejoin="round"/>
<path id="Stroke-3" d="M14.75 5.72978L18.043 3.03478C18.859 2.36678 20.083 2.94878 20.082 4.00178L20.07 11.3508C20.069 12.4038 18.844 12.9808 18.03 12.3128L14.75 9.61778" stroke="var(--stroke-0, black)" stroke-width="1.5" stroke-linecap="round" stroke-linejoin="round"/>
</g>
</svg>
